
<svg version="1.0" xmlns="http://www.w3.org/2000/svg"
 width="80.000000pt" height="80.000000pt" viewBox="0 0 80.000000 80.000000"
 preserveAspectRatio="xMidYMid meet">

<g transform="translate(0.000000,80.000000) scale(0.100000,-0.100000)"
fill="#000000" stroke="none">
<path d="M605 620 c-61 -62 -82 -77 -92 -68 -11 9 -11 14 2 28 9 10 12 21 7
24 -5 3 -15 -1 -22 -9 -10 -12 -15 -12 -36 1 -19 13 -22 20 -14 34 13 24 13
40 0 40 -5 0 -13 -12 -16 -26 -5 -20 -11 -24 -28 -20 -11 3 -24 6 -28 6 -5 0
-8 9 -8 20 0 11 -4 20 -10 20 -5 0 -10 -8 -10 -19 0 -11 -9 -21 -22 -25 -34
-9 -35 -8 -42 19 -4 14 -11 25 -16 25 -13 0 -13 -16 0 -40 8 -14 5 -21 -14
-34 -21 -13 -26 -13 -36 -1 -7 8 -17 12 -22 9 -6 -4 -4 -12 5 -22 14 -13 14
-17 0 -38 -12 -19 -19 -22 -33 -14 -24 13 -40 13 -40 0 0 -5 12 -13 26 -16 20
-5 24 -11 20 -28 -3 -11 -6 -24 -6 -28 0 -5 -9 -8 -20 -8 -11 0 -20 -4 -20
-10 0 -5 8 -10 19 -10 11 0 21 -9 25 -22 9 -34 8 -35 -19 -42 -14 -4 -25 -11
-25 -16 0 -13 16 -13 40 0 14 8 21 5 33 -14 14 -21 14 -25 -1 -40 -15 -15 -15
-16 0 -16 9 0 20 5 23 10 5 8 11 7 21 -1 13 -11 2 -25 -67 -95 -46 -46 -80
-87 -76 -91 8 -7 597 575 597 589 0 19 -20 3 -95 -72z m-188 -21 c15 -5 43
-24 61 -42 l32 -31 -117 -118 -117 -118 -29 28 c-54 50 -70 120 -43 186 35 83
131 126 213 95z"/>
<path d="M360 580 c0 -5 5 -10 10 -10 6 0 10 5 10 10 0 6 -4 10 -10 10 -5 0
-10 -4 -10 -10z"/>
<path d="M400 570 c0 -5 5 -10 10 -10 6 0 10 5 10 10 0 6 -4 10 -10 10 -5 0
-10 -4 -10 -10z"/>
<path d="M285 560 c3 -5 8 -10 11 -10 2 0 4 5 4 10 0 6 -5 10 -11 10 -5 0 -7
-4 -4 -10z"/>
<path d="M255 540 c-3 -5 -1 -10 4 -10 6 0 11 5 11 10 0 6 -2 10 -4 10 -3 0
-8 -4 -11 -10z"/>
<path d="M465 520 c3 -5 8 -10 11 -10 2 0 4 5 4 10 0 6 -5 10 -11 10 -5 0 -7
-4 -4 -10z"/>
<path d="M230 510 c0 -5 5 -10 11 -10 5 0 7 5 4 10 -3 6 -8 10 -11 10 -2 0 -4
-4 -4 -10z"/>
<path d="M210 430 c0 -5 5 -10 10 -10 6 0 10 5 10 10 0 6 -4 10 -10 10 -5 0
-10 -4 -10 -10z"/>
<path d="M220 389 c0 -5 5 -7 10 -4 6 3 10 8 10 11 0 2 -4 4 -10 4 -5 0 -10
-5 -10 -11z"/>
<path d="M671 523 c-18 -18 -20 -23 -8 -23 8 0 19 -10 23 -22 l7 -23 10 22 c5
12 16 23 23 25 9 2 6 9 -9 23 l-22 20 -24 -22z"/>
<path d="M479 397 c-32 -16 -50 -34 -66 -67 -28 -54 -29 -92 -3 -147 56 -125
243 -119 295 10 17 41 6 49 -30 21 -17 -12 -17 -16 -6 -24 12 -7 8 -14 -18
-39 -92 -86 -241 -21 -241 106 0 36 30 92 60 112 22 14 22 14 16 -6 -4 -12 -3
-24 2 -27 9 -5 48 72 40 80 -2 2 -24 -6 -49 -19z"/>
<path d="M591 376 c-9 -10 -8 -15 4 -20 8 -3 22 -3 30 0 12 5 13 10 4 20 -6 8
-15 14 -19 14 -4 0 -13 -6 -19 -14z"/>
<path d="M485 300 c3 -5 8 -10 11 -10 2 0 4 5 4 10 0 6 -5 10 -11 10 -5 0 -7
-4 -4 -10z"/>
<path d="M585 190 c3 -5 8 -10 11 -10 2 0 4 5 4 10 0 6 -5 10 -11 10 -5 0 -7
-4 -4 -10z"/>
<path d="M281 156 c-9 -10 -8 -15 4 -20 8 -3 22 -3 30 0 12 5 13 10 4 20 -6 8
-15 14 -19 14 -4 0 -13 -6 -19 -14z"/>
</g>
</svg>
